<?xml version="1.0" encoding="utf-8"?>
<!-- Generator: Adobe Illustrator 21.1.0, SVG Export Plug-In . SVG Version: 6.00 Build 0)  -->
<svg version="1.1" id="Layer_1" xmlns="http://www.w3.org/2000/svg" xmlns:xlink="http://www.w3.org/1999/xlink" x="0px" y="0px"
	 viewBox="0 0 800 800" style="enable-background:new 0 0 800 800;" xml:space="preserve">
<path d="M507.8,609.4c-7-2.9-13.3-5.8-19.8-8.1c-25.8-9.3-52.5-15.1-79.7-17.9c-14.4-1.5-28.9-1.7-43.3-2.1c-4-0.1-5.1-1.2-4.7-5.3
	c3.6-43.3,12.3-85.6,24.7-127.1c5.2-17.4,11.3-34.4,17.3-51.5c0.6-1.6,3-2.8,4.9-3.6c32.9-15.5,67.4-27.1,102.4-36.6
	c32.6-8.8,65.8-15,98.9-22.1c1.8-0.4,4.9,1.2,6,2.8c9.3,14.6,15.3,30.4,15,47.9c-0.2,14-6.8,26-14,37.4c-9.9,15.6-23.3,27.7-39,37.3
	c-2.2,1.3-4.2,3.4-5.6,5.6c-26.6,41.5-48,85.3-59.8,133.5C510,602.7,508.9,605.8,507.8,609.4z"/>
<path d="M436.9,316c0-7.1,0-14.2,0-21.3c0.1-11.7,0.2-23.3,0.4-35c0.2-8.1,6.1-13.9,14.3-13.9c19.3,0,38.6,0.2,57.9,0.3
	c31.1,0.2,62.2,0.4,93.3,0.6c2.1,0,4.2,0.2,6.5,0.4c-15.1,26-40.3,35.8-67.6,45.3c20,8.6,39.6,14.9,56.3,27.9
	c-68.2,11.9-134.1,31-198.1,59c-0.8-9-1.4-17.2-2.3-25.4c-5.8-53-15-105.2-34.8-155c-2.5-6.3-5.9-12.3-8.5-18.6
	c-1-2.4-1.4-5.5-0.9-8c2.7-13.6,9.3-25.4,19.4-34.8c3.2-2.9,8.6-4.2,13.2-4.8c16.4-2,32.8-3,49.2-5c42.1-5,83.7-12.6,124.3-24.8
	c17.4-5.2,34-13.7,48.9-24.7c8.4-6.2,17-12.2,25.5-18.2c0,6.8-0.3,13.7,0.1,20.5c0.5,8.5,0.9,17,2.4,25.3c1,5.3-0.8,6.9-5.4,8.2
	c-40.1,11.6-80.2,23.3-120.2,35.1c-20.3,5.9-40.4,12.6-60.8,17.6c-15,3.7-26.9,16.7-26.6,33.5c0.5,24.1,0.2,48.3,2,72.3
	c1.1,13.8,5.8,27.3,8.9,40.9c0.2,0.9,0.8,1.7,1.2,2.5C436,316.1,436.4,316.1,436.9,316z"/>
<path d="M328.1,720.3c-20,0-40-0.1-60,0.1c-4.9,0-8.6-1.8-12-5.1c-10.8-10.6-14.2-24.1-15.3-38.5c-0.3-4.4,7.6-16.2,11.8-17
	c2.8-0.5,6.2,0.5,9,1.6c18.2,7.3,35.3,5.7,50.9-6.1c3.6-2.7,6.8-6.5,8.9-10.5c8.9-16.6,19-32.5,30.8-47.2c2.3-2.9,4.8-3.9,8.5-3.9
	c34.3,0.1,67.4,7.4,100.3,15.9c12.5,3.2,24.4,8.6,36.6,12.9c3.5,1.3,4.1,2.9,2,6.3c-4.7,7.8-8.8,16.1-13.6,23.8
	c-21.7,35-53.2,56.6-92.7,67.1c-1.7,0.5-3.6,0.5-5.4,0.5C368.1,720.3,348.1,720.3,328.1,720.3z"/>
<path d="M217.6,363.4c11-25.9,22-51.7,33-77.6c-0.4-0.5-0.8-1.1-1.3-1.6c-6.7,1.4-13.6,2.3-20.2,4.2
	c-43.1,12.2-75.1,39.8-101.2,74.8c-10.9,14.6-19.4,30.9-29,46.5c-2.1,3.4-4.4,6.8-6.6,10.2c-0.4-0.2-0.8-0.4-1.1-0.6
	c4.1-10.8,7.7-21.9,12.4-32.5c11-25.1,21.7-50.5,34.1-75c20.5-40.6,48.4-75.2,87.2-100c19.2-12.2,39.9-20.4,62.7-22.6
	c3.9-0.4,5.4-2.1,6.7-5.3c7.9-18.7,15.9-37.4,23.9-56.1c0.8-1.8,1.7-3.4,3.2-6.5c0.9,2.5,1.4,3.6,1.6,4.8
	c7.4,40.3,14.7,80.6,22.3,120.9c1,5.5,0.1,9.2-4.4,13C300.7,294,260.9,328.4,221,362.7c-0.6,0.5-1.2,1-1.8,1.5
	C218.6,363.9,218.1,363.7,217.6,363.4z"/>
<path d="M114.8,409.8c-0.7,7.9-1.5,15.7-2,23.6c-2.1,35.1,2,69.2,18.3,101c10.5,20.5,24.9,37.3,46.4,46.9c4.7,2.1,3.2,5.2,2,8.2
	c-6.2,15.8-12.6,31.6-18.9,47.3c-4.7,11.8-9.4,23.5-14.1,35.3c-2.8,6.9-3.7,7.2-10.2,3.5c-24.8-14.2-40.6-35.7-50.4-62.1
	c-12.7-34.3-14.4-69.6-9.4-105.4c2-14.6,5.3-29.1,9.1-43.5c5.3-20.4,16.1-38.1,27.9-55.3C113.8,409.5,114.3,409.7,114.8,409.8z"/>
<path d="M639.9,174.7c-1,5.5-1.7,10.2-2.7,14.9c-3.3,15.4-7.3,30.4-16.5,43.6c-2.1,3.1-4.2,4.6-8,4.5c-52.1-0.4-104.1-0.8-156.2-1
	c-4.8,0-9.6,0.9-14.2,2c-3.3,0.8-4.6-0.6-4.7-3.2c-0.2-6.1-0.8-12.5,0.5-18.3c1.1-5.3,6.1-8.1,11.5-9.1
	c36.2-6.5,72.4-12.9,108.6-19.3c25.4-4.5,50.8-8.9,76.2-13.4C635.9,175.1,637.5,175,639.9,174.7z"/>
<path d="M640.5,121.5c1,6.5,2.4,12.3,2.6,18.2c0.2,6.5-0.8,13-1,19.4c-0.1,4-1.9,5.7-5.9,6.4c-50.8,8.9-101.6,17.9-152.4,26.9
	c-13.6,2.4-27.2,4.8-40.8,7.2c-1.4,0.3-2.9,0.4-4.3,0.6c-3.4-12.1,1.1-19.9,14-24c12.2-3.8,24.6-7.3,36.8-10.9
	c48.4-14.1,96.7-28.3,145.1-42.4C636.1,122.5,637.5,122.2,640.5,121.5z"/>
</svg>
