<?xml version="1.0" encoding="utf-8"?>
<!-- Generator: Adobe Illustrator 21.1.0, SVG Export Plug-In . SVG Version: 6.00 Build 0)  -->
<svg version="1.1" id="Layer_1" xmlns="http://www.w3.org/2000/svg" xmlns:xlink="http://www.w3.org/1999/xlink" x="0px" y="0px"
	 viewBox="0 0 800 800" style="enable-background:new 0 0 800 800;" xml:space="preserve">
<path d="M610,344.7c-1.2-0.6-2.5-1.2-3.5-1.9c-38.8-24.9-72.2-55.6-100.1-92.3c-6.2-8.2-11.9-16.9-18.1-25.1c-2.6-3.5-1.5-5.4,1-8.5
	c13.8-16.7,32.4-26.8,50.7-37.3c36.6-20.9,73-42.1,109.5-63.1c7.5-4.3,14.9-8.8,22.6-12.8c1.8-0.9,5-0.9,6.7,0.2
	c19.6,12.2,35.2,28.3,46.8,48.3c1.1,1.8,1,5.3-0.1,7.2c-31,54.2-62,108.4-93.7,162.2c-4.9,8.3-13,14.6-19.6,21.8
	C611.6,343.9,610.8,344.2,610,344.7z"/>
<path d="M265.1,680.1c-1.9-1.7-3.1-2.8-4.3-4c-35.5-35.5-70.9-70.9-106.4-106.4c-4.8-4.8-4.5-4.6,0-9.8c5.5-6.4,12-9.5,20.4-10.8
	c20.8-3.3,39.7-12.2,57.9-22.5c55.8-31.4,102.3-73.6,143.2-122.4c2.3-2.8,4.6-5.5,6.7-8c8,9.7,14.9,19.5,23.3,27.9
	c8.2,8.2,18,15,27.5,22.8c-5.6,4.7-11.3,9.4-16.9,14.3c-46.2,40.3-86.3,85.6-115.7,139.7c-10.6,19.6-19.2,39.9-21.9,62.3
	c-0.1,1.3-0.6,2.8-1.4,3.7C273.6,671.4,269.5,675.6,265.1,680.1z"/>
<path d="M295.1,272.3c18.4-21.3,36.9-42.6,55.3-63.8c-0.1-0.6-0.3-1.2-0.4-1.8c-7.1-0.8-14.2-2.1-21.3-2.3
	c-38.8-1.4-73.5,11.7-106.1,31.5c-20.2,12.2-37.9,27.4-54.6,44c-2.6,2.6-5.7,4.7-9.4,6.3c0.7-1,1.2-2.2,2-3.1
	c21.3-24.9,41.9-50.5,64.2-74.6c24.4-26.4,52.3-48.7,85.2-64.2c25.9-12.2,52.9-20.1,81.8-19.1c7.8,0.3,15.6,1.3,23.2,2.7
	c3.6,0.7,5.5,0,7.7-2.5c13.1-15.3,26.4-30.5,39.5-45.8c1.6-1.8,3-3.8,4.5-5.7c0.6,0.4,1.1,0.7,1.7,1.1c-0.9,6.8-1.7,13.6-2.6,20.5
	c-4.6,35.2-9.3,70.3-13.8,105.5c-0.6,5-2.3,8.2-7.5,10.4c-49,20.4-97.9,41.1-146.9,61.7c-0.4,0.2-0.9,0.3-1.4,0.5
	C295.9,273.1,295.5,272.7,295.1,272.3z"/>
<path d="M476,229.8c31.5,52.8,72.5,93.9,125.7,124.9c-9.1,8.1-16.8,17.3-26.5,23c-21.3,12.6-44.4,21.4-69.4,23.7
	c-0.7,0.1-1.4,0.1-1.9,0.4c-7,4.9-12.6,0.8-18.1-3c-21.2-14.6-39.1-32.5-53.9-53.6c-1.7-2.4-3.1-5.1-4.6-7.7
	c-1.8-2.9-2.3-5.7-0.3-8.9c1-1.6,1.5-3.7,1.7-5.7c2.4-23.8,10.4-46,22.5-66.2C457.2,246.8,467.3,239.1,476,229.8z"/>
<path d="M184.3,283c-2,4.3-3.4,7.2-4.8,10.2c-13.6,29.9-21.7,61.2-21.2,94.2c0.3,20.4,4.5,40.1,14.6,57.9
	c4.2,7.4,10.1,13.9,15.7,20.5c4.3,5,4.6,5.6,0.3,10.8c-16.8,20.3-33.6,40.5-50.4,60.8c-1.8,2.2-3.6,4.4-5.4,6.6
	c-5.1,6.2-5.8,6.3-11.3,0.2c-13.4-14.9-22.1-32.2-26-51.9c-7.5-38.2-0.2-74.5,13.7-109.9c8.6-21.8,19.7-42.3,33.7-61
	c10.5-13.9,23.4-25.4,37.2-36.1C181.1,284.6,182,284.3,184.3,283z"/>
<path d="M143.1,625.6c-11.9,7.1-24.6,13.3-35.6,21.7c-10.8,8.3-19.8,18.8-29.6,28.3c0.1-0.5,0-1.5,0.3-2.4
	c4.3-12.4,11.2-23.3,18.5-34.2c15.4-22.9,36-40.4,58-56.4c3.4-2.5,5-2.3,7.3,1.3c21.3,34.3,49.2,62.4,82.9,84.6
	c3.3,2.2,3.5,4.1,0.7,6.6c-11.1,9.6-21.9,19.4-33.4,28.5c-9.6,7.6-20,14.4-30.2,21.3c-2.8,1.9-6.2,3.1-9.5,4.4
	c-11.3,4.4-22.7,8.7-34,13c-1.6,0.6-3.3,1.2-5.5,1.1c21.7-16.4,37.3-37.9,52.7-59.8c-45.9,16.5-81.5,46-109,86.1
	c16.8-50.5,40.2-97.8,67.2-143.4C143.8,626.1,143.4,625.8,143.1,625.6z"/>
<path d="M482.9,412.4c-11.4,7.8-21.6,14.6-31.7,21.6c-8.5,5.8-8.5,5.9-17,0.2c-16.6-11.1-30.1-25.2-40.5-42.2
	c-2.6-4.2-2.5-7.3,0.8-11.6c7-9.1,13-18.9,19.5-28.4c0.9-1.3,1.8-2.7,3.5-5.1C432.2,376.2,453.7,397.7,482.9,412.4z"/>
</svg>
