<?xml version="1.0" encoding="utf-8"?>
<!-- Generator: Adobe Illustrator 21.1.0, SVG Export Plug-In . SVG Version: 6.00 Build 0)  -->
<svg version="1.1" id="Layer_1" xmlns="http://www.w3.org/2000/svg" xmlns:xlink="http://www.w3.org/1999/xlink" x="0px" y="0px"
	 viewBox="0 0 800 800" style="enable-background:new 0 0 800 800;" xml:space="preserve">
<path d="M674.6,104.5c1.4,0.7,2.6,1.2,3.7,1.9c18.8,12.1,34,27.7,45.8,46.7c2.2,3.5,2.2,6.3,0.1,10
	c-31.1,53.6-61.8,107.4-93.2,160.7c-4.9,8.3-12.8,14.8-19.7,21.7c-0.9,0.9-4.4,0.3-5.9-0.6c-21.6-13.4-41.3-29.3-59.6-46.8
	c-22.1-21.2-41.5-44.6-58.3-70.2c-2.3-3.5-2.2-5.6,0.9-8.5c5.6-5.2,10.4-11.4,16.5-16c7.9-6,16.6-11,25.2-16
	c36.7-21.3,73.5-42.5,110.3-63.7c10.1-5.8,20.2-11.6,30.3-17.4C671.8,105.6,673.2,105.1,674.6,104.5z"/>
<path d="M382,397.1c4.2,6.2,7.2,11,10.5,15.5c9.8,13.1,21.5,24,35.5,32.5c5.8,3.5,5.9,3.6,0.8,7.7c-40.5,33.1-76.2,70.6-106,113.6
	c-17.4,25.2-32.5,51.5-41,81.2c-1,3.7-2.5,7.5-2.4,11.2c0.3,10.4-7.1,15.6-13.4,21.6c-0.7,0.7-2.8,0.2-4.2-0.1
	c-0.7-0.2-1.2-1.1-1.8-1.7c-35.7-35.7-71.3-71.4-107.1-107c-3.3-3.3-3-5,0-8.4c6.1-7.1,13.4-10.2,22.6-11.8
	c20.6-3.4,39.3-12.5,57.3-22.7c46.6-26.2,86.7-60.5,122.9-99.7c8.2-8.9,15.9-18.4,23.8-27.6C380.4,400.5,380.9,399.2,382,397.1z"/>
<path d="M474.9,232c31.5,52.9,72.6,94.1,125.8,125.2c-8.8,7.9-16.2,17-25.6,22.6c-21.6,12.9-45,21.7-70.3,24.3
	c-1,0.1-2.1,0.2-2.9,0.7c-4.8,3.3-9.1,1.8-13.3-1c-25-16.6-46-37.2-61.8-62.9c-2.1-3.4-2.8-6.6-0.5-10.2c0.8-1.3,1.2-3.1,1.3-4.7
	c2.4-24.1,11-46.3,22.7-67.2c3.4-6,9.6-10.5,14.5-15.7C468.2,239.5,471.4,235.9,474.9,232z"/>
<path d="M364.4,159.9c-8.3,0-16.7-0.1-25,0c-3.8,0.1-5.7-1.3-6.6-5.1c-3.4-13.7-3.2-27.4-0.5-41.1c1-5.1,3.4-7.1,8.9-7
	c15.8,0.4,31.7,0.1,47.5,0.2c4,0,5.2-1.5,5.1-5.3c-0.2-15.8,0.1-31.7-0.2-47.5c-0.1-5,1.6-7.4,6.4-8.3c14.1-2.7,28.1-2.9,42.1,0.8
	c3.9,1,4.2,3.6,4.2,6.8c-0.1,15.7,0.2,31.3-0.1,47c-0.1,5.1,1.6,6.6,6.6,6.5c15.8-0.3,31.7,0,47.5-0.1c3.9,0,5.7,1.3,6.5,5.1
	c3,13.9,3.3,27.7,0.2,41.6c-1,4.4-3,6.4-7.8,6.4c-15.8-0.3-31.7,0-47.5-0.2c-4.2-0.1-5.5,1.4-5.4,5.5c0.2,15.8-0.1,31.7,0.2,47.5
	c0.1,4.9-2,7-6.4,7.9c-13.4,2.6-26.7,3-40.2,0c-4.6-1-6.3-2.9-6.2-7.7c0.3-15.8-0.1-31.7,0.2-47.5c0.1-4.7-1.3-6-5.9-5.7
	C380.1,160.2,372.2,159.9,364.4,159.9C364.4,159.9,364.4,159.9,364.4,159.9z"/>
<path d="M142.6,627.9c-12,7.2-24.7,13.4-35.7,21.8c-10.9,8.4-20.1,19-31,29.5c2.9-6.7,5.1-12.9,8.1-18.6
	c16.9-31.7,41.9-56.1,71.1-76.4c3.4-2.4,4.6-0.4,6.1,2.1c20.2,32.7,46.6,59.4,77.8,81.4c9.4,6.6,10,7.2,1.1,14.8
	c-15.5,13.1-32,25-47.7,37.8c-12.8,10.5-28.8,13.4-43.4,19.6c-5.3,2.3-10.5,4.5-16.4,5.9c21.4-16.7,37.4-37.9,52.5-59.9
	c-45.4,16.4-80.8,45.6-108.3,84.9C93.2,720.6,116.8,673.7,142.6,627.9z"/>
<path d="M270.7,257.7c0,5.5,0.3,11-0.1,16.5c-0.4,4.7,1.6,5.6,5.7,5.5c11.2-0.2,22.3,0.1,33.5-0.2c4-0.1,6.2,1.3,6.2,5.2
	c0.2,9.4,0.3,18.9,0.1,28.3c-0.1,4.4-2.4,6.3-7.2,6.1c-11.2-0.3-22.3,0.1-33.5-0.2c-4.1-0.1-5,1.3-4.9,5.2c0.3,11.3,0,22.7,0.2,34
	c0,3.6-1.2,5.8-4.7,6.4c-10.1,1.9-20.1,2.3-30.3,0.1c-3.7-0.8-4.8-2.7-4.8-6.3c0.1-11.5-0.1-23,0.1-34.5c0.1-3.8-1.3-4.9-4.9-4.9
	c-11.5,0.1-23-0.1-34.5,0.1c-3.9,0.1-5.8-1.3-6.5-5.1c-2-9.9-2-19.8,0.1-29.8c0.7-3.5,2.4-4.9,6.2-4.8c11.7,0.3,23.3,0,35,0.2
	c3.5,0,4.7-1.2,4.6-4.6c-0.2-11.7,0-23.3-0.1-35c0-3.4,1.1-5.3,4.5-6c10.1-2,20.1-2.3,30.2,0c3.5,0.8,5.1,2.5,5,6.1
	C270.6,246.1,270.7,251.9,270.7,257.7z"/>
<path d="M162.7,477.7c-10.2,0-19.7-0.2-29.1,0.1c-4,0.1-6.2-1.3-6.3-5.2c-0.2-6.8-0.2-13.6,0-20.3c0.1-3.7,2.2-5.4,6.2-5.3
	c7.6,0.3,15.3-0.3,23,0.2c5.3,0.3,6.5-1.6,6.3-6.6c-0.4-7.6,0-15.3-0.1-23c-0.1-3.2,1-5.4,4.3-5.5c7.1-0.2,14.2-0.2,21.3,0
	c3.6,0.1,5,2.2,4.9,6c-0.2,7.8,0.1,15.7-0.1,23.5c-0.1,4,1.1,5.7,5.3,5.5c8-0.3,16,0.1,24-0.1c3.5-0.1,5.5,1.2,5.6,4.7
	c0.1,7.1,0.2,14.2,0,21.3c-0.1,3.3-2.1,4.8-5.6,4.8c-8.3-0.2-16.6,0.1-25-0.2c-3.3-0.1-4.4,1-4.3,4.3c0.2,8.2-0.1,16.3,0.1,24.5
	c0.1,3.9-1.2,6.3-5.1,6.4c-6.9,0.2-13.9,0.1-20.8-0.1c-3.5-0.1-4.6-2.2-4.6-5.7C162.8,497.5,162.7,488,162.7,477.7z"/>
<path d="M482.4,415c-2.8,1.9-4.3,2.8-5.8,3.8c-9.8,6.6-19.6,13.2-29.3,19.9c-3.2,2.2-6,2.9-9.6,0.7c-18.9-11.7-34-27-45.5-46.1
	c-2.2-3.6-1.7-6.3,0.9-9.9c7-9.5,13.4-19.4,20-29.2c0.9-1.3,1.8-2.6,3.4-5C431.3,378.7,452.8,400.1,482.4,415z"/>
</svg>
