<?xml version="1.0" encoding="utf-8"?>
<!-- Generator: Adobe Illustrator 21.1.0, SVG Export Plug-In . SVG Version: 6.00 Build 0)  -->
<svg version="1.1" id="Layer_1" xmlns="http://www.w3.org/2000/svg" xmlns:xlink="http://www.w3.org/1999/xlink" x="0px" y="0px"
	 viewBox="0 0 800 800" style="enable-background:new 0 0 800 800;" xml:space="preserve">
<path d="M491.6,590.9c-10.9-4-21.1-8.4-31.7-11.7c-24.5-7.6-49.7-12.5-75.3-14.9c-11.9-1.1-23.9-1-35.9-1.1c-3.9,0-4.8-1.3-4.5-5
	c4-48,14.3-94.7,28.7-140.5c4.1-13,8.8-25.8,13.4-38.6c0.5-1.3,2.3-2.3,3.7-2.9c52.5-23,106.7-40.6,163-51.5
	c12.7-2.5,25.5-4.9,38.2-7.6c3.6-0.7,5.9,0,7.8,3.3c8.6,14.6,14.5,30,14.4,47.2c-0.2,13.9-6.6,25.7-13.7,37
	c-9.9,15.8-23.4,28.1-39.2,37.9c-2.3,1.4-4.4,3.6-5.9,5.9c-26.6,41.5-48,85.4-59.8,133.5c-0.6,2.4-1.4,4.8-2.1,7.2
	C492.4,589.6,492,590.1,491.6,590.9z"/>
<path d="M527.1,275c18.7,8.1,38.4,14.3,56.4,27.8c-69.6,11.4-135.3,30.6-199.5,58.6c-0.4-4.5-0.8-8.4-1.1-12.3
	c-4.3-51.1-12.8-101.4-29.3-150.1c-4.2-12.4-10.2-24.2-15-36.5c-1-2.6-1.4-5.8-0.9-8.5c2.7-13.4,9.2-25.1,19.1-34.3
	c3.2-3,8.6-4.4,13.2-4.9c16.7-2,33.5-3.1,50.2-5.1c41.9-5.1,83.4-12.6,123.8-24.8c17.4-5.3,34-13.7,48.8-24.8
	c8.4-6.2,17-12.1,25.3-18c0,6.8-0.3,13.5,0.1,20.2c0.5,8.8,1.2,17.6,2.5,26.3c0.6,4.2-0.2,5.9-4.3,7.1
	c-50.6,14.7-101.2,29.6-151.8,44.4c-12,3.5-24,6.7-35.9,10.7c-11,3.6-19.2,11.9-19.9,22.9c-2.8,40.1-3.9,80.2,8.9,119.3
	c0.6,1.7,1.2,3.4,2.8,5c0.1-1.7,0.3-3.4,0.3-5.1c0.2-17,0.3-34,0.6-51c0.1-8.4,6.1-14.2,14.6-14.2c19.1,0,38.3,0.2,57.4,0.3
	c31.1,0.2,62.2,0.4,93.3,0.7c2.1,0,4.2,0,6.6,0.7c-8.5,10.8-15.8,22.5-28.6,28.5C552.4,263.9,539.9,269.3,527.1,275z"/>
<path d="M311.7,702.3c-20,0-40,0.2-60-0.2c-3.6-0.1-8-1.8-10.7-4.2c-11.7-10.4-15.7-24.5-16.1-39.5c-0.2-7.4,5.8-12.7,11.6-16.5
	c1.9-1.2,6.1,0.3,8.9,1.4c18.3,7.4,35.6,5.7,51.3-6.3c3.4-2.6,6.5-6.3,8.5-10.2c8.8-16.5,18.8-32.2,30.5-46.8
	c2.5-3.1,5.2-4.4,9.3-4.4c32.6,0,64.1,6.9,95.4,14.8c13.6,3.4,26.8,9,40.1,13.5c4.2,1.4,5.4,3.2,2.6,7.5c-5,7.8-9,16.3-13.9,24.2
	c-21.8,34.5-53.2,55.7-92.3,66.1c-1.6,0.4-3.3,0.4-4.9,0.4C352,702.3,331.9,702.3,311.7,702.3z"/>
<path d="M136.4,197.9c-8.3,0-16.7-0.1-25,0c-3.8,0.1-5.7-1.3-6.6-5.1c-3.4-13.7-3.2-27.4-0.5-41.1c1-5.1,3.4-7.1,8.9-7
	c15.8,0.4,31.7,0.1,47.5,0.2c4,0,5.2-1.5,5.1-5.3c-0.2-15.8,0.1-31.7-0.2-47.5c-0.1-5,1.7-7.3,6.5-8.2c14.1-2.7,28.1-2.9,42.1,0.8
	c3.9,1,4.2,3.6,4.2,6.8c-0.1,15.7,0.2,31.3-0.1,47c-0.1,5.2,1.6,6.6,6.6,6.5c15.8-0.3,31.7,0,47.5-0.1c3.9,0,5.7,1.4,6.5,5.2
	c3,13.9,3.3,27.7,0.2,41.6c-1,4.4-3,6.4-7.9,6.3c-15.8-0.3-31.7,0-47.5-0.2c-4.3-0.1-5.4,1.4-5.4,5.5c0.2,15.8-0.1,31.7,0.2,47.5
	c0.1,4.9-2,7-6.4,7.9c-13.6,2.7-27.1,3.1-40.6-0.2c-4.2-1-5.8-2.8-5.7-7.1c0.2-15.7,0.1-31.3,0.1-47c0-6.7,0-6.6-6.3-6.6
	C151.7,197.9,144.1,197.9,136.4,197.9C136.4,197.9,136.4,197.9,136.4,197.9z"/>
<path d="M224,366.6c5.8,0,11.7-0.1,17.5,0.1c3.5,0.1,4.7-1.1,4.6-4.6c-0.2-11.3,0.1-22.7-0.2-34c-0.1-4.6,1.6-6.7,6-7.4
	c9.3-1.5,18.5-1.8,27.8,0.1c4.4,0.9,6.1,2.8,6,7.4c-0.3,10.8,0.2,21.7-0.2,32.5c-0.2,5.1,1.6,6.2,6.2,6c11-0.3,22,0,33-0.2
	c3.9-0.1,6.2,1.3,6.2,5.2c0.2,9.4,0.3,18.9,0.1,28.3c-0.1,4.4-2.4,6.3-7.1,6.2c-11.3-0.3-22.7,0-34-0.2c-3.6-0.1-4.5,1.2-4.5,4.7
	c0.2,11.5,0,23,0.2,34.5c0,3.5-1.1,5.8-4.7,6.5c-10.1,1.9-20.1,2.3-30.3,0.1c-3.6-0.8-4.8-2.7-4.8-6.3c0.1-11.5-0.1-23,0.1-34.5
	c0.1-3.7-1.2-5-4.9-4.9c-11.5,0.2-23-0.1-34.5,0.1c-3.9,0.1-5.8-1.3-6.5-5.1c-2-9.9-2-19.8,0.1-29.8c0.7-3.4,2.4-5.1,6.2-4.8
	C212.3,366.9,218.2,366.6,224,366.6z"/>
<path d="M623.9,156.7c-0.9,5.4-1.6,10.1-2.6,14.7c-3.3,15.4-7.3,30.4-16.5,43.6c-2.1,3-4.1,4.6-8,4.6c-51.7-0.4-103.4-0.8-155.2-1
	c-5.1,0-10.2,0.9-15.2,1.9c-2.8,0.6-4.5,0.1-4.6-2.6c-0.2-6.4-0.9-13.1,0.5-19.3c1.1-5,6.1-7.8,11.3-8.7
	c53.1-9.4,106.1-18.8,159.2-28.1c8.7-1.5,17.4-3.1,26-4.6C620.2,157,621.6,157,623.9,156.7z"/>
<path d="M624.2,103.6c1.1,5.5,2.6,10.6,3,15.7c0.4,4.9-0.2,10-0.6,15c-1.1,12.1-1.2,12.2-13.4,14.4c-62.3,11-124.5,22-186.8,33
	c-1.3,0.2-2.6,0.2-3.8,0.3c-2.9-12.5,1.4-19.9,14.3-23.9c15.1-4.6,30.3-8.9,45.5-13.4c45.3-13.3,90.7-26.5,136-39.8
	C619.9,104.6,621.5,104.2,624.2,103.6z"/>
<path d="M216,557.7c0,9.9-0.2,19.1,0.1,28.2c0.1,4.4-1.4,6.8-5.7,6.9c-6.4,0.2-12.9,0.2-19.4,0c-4-0.1-5.6-2.2-5.5-6.5
	c0.3-9.3,0.1-18.6,0.1-28.7c-9.6,0-18.6,0-27.7,0c-6.8,0-7.5-0.2-8-7.1c-0.4-6.3,0.1-12.6,0.4-18.9c0.2-3.4,2.2-4.8,5.7-4.7
	c8.2,0.2,16.3-0.1,24.5,0.1c3.8,0.1,5.3-1,5.2-5.1c-0.3-8,0.1-16-0.1-24c-0.1-3.7,1.2-6,4.8-6c7.1-0.1,14.2,0,21.3,0.3
	c3.3,0.1,4.4,2.2,4.3,5.4c-0.1,8.2,0.1,16.3-0.1,24.5c-0.1,3.7,1.2,5,4.9,4.9c8-0.2,16,0.1,24-0.1c4-0.1,6,1.5,6.1,5.3
	c0.2,6.4,0.3,12.9,0.2,19.4c-0.1,4.4-2.2,6.4-7,6.2C235,557.5,225.9,557.7,216,557.7z"/>
</svg>
